<svg xmlns="http://www.w3.org/2000/svg" style="isolation:isolate" viewBox="620 317 128 128" width="128" height="128"><defs><linearGradient id="a" x1="-.018" y1="-.018" x2="1.023" y2="1.023"><stop offset="1.739%" stop-color="#5f88ce"/><stop offset="97.826%" stop-color="#2f5aa4"/></linearGradient></defs><path d="M636 317h96c8.831 0 16 7.169 16 16v96c0 8.831-7.169 16-16 16h-96c-8.831 0-16-7.169-16-16v-96c0-8.831 7.169-16 16-16z" fill="url(#a)"/><defs><filter id="b" x="-200%" y="-200%" width="400%" height="400%"><feOffset xmlns="http://www.w3.org/2000/svg" in="SourceAlpha" result="offOut" dy="1"/><feGaussianBlur xmlns="http://www.w3.org/2000/svg" in="offOut" result="blurOut" stdDeviation="1"/><feComponentTransfer xmlns="http://www.w3.org/2000/svg" in="blurOut" result="opacOut"><feFuncA xmlns="http://www.w3.org/2000/svg" type="table" tableValues="0 0.5"/></feComponentTransfer><feBlend xmlns="http://www.w3.org/2000/svg" in="SourceGraphic" in2="opacOut"/></filter></defs><path d="M695.963 416.547l-13.33-26.026h-11.67v26.026h-14.649v-71.094h26.416q12.598 0 19.434 5.615 6.836 5.616 6.836 15.87 0 7.275-3.149 12.133-3.15 4.859-9.546 7.74l15.381 29.052v.684h-15.723zm-25-59.229v21.338h11.816q5.518 0 8.545-2.807 3.028-2.808 3.028-7.74 0-5.029-2.857-7.91-2.856-2.881-8.765-2.881h-11.767z" fill-rule="evenodd" fill="#FFF" filter="url(#b)"/></svg>